<?xml version="1.0" encoding="iso-8859-1"?>
<!-- Generator: Adobe Illustrator 17.1.0, SVG Export Plug-In . SVG Version: 6.00 Build 0)  -->
<!DOCTYPE svg PUBLIC "-//W3C//DTD SVG 1.1//EN" "http://www.w3.org/Graphics/SVG/1.1/DTD/svg11.dtd">
<svg version="1.1" id="Capa_1" xmlns="http://www.w3.org/2000/svg" xmlns:xlink="http://www.w3.org/1999/xlink" x="0px" y="0px"
	 viewBox="0 0 459.201 459.201" style="enable-background:new 0 0 459.201 459.201;" xml:space="preserve">
<g>
	<path d="M296.05,258.873c1.953,1.952,4.512,2.929,7.071,2.929s5.119-0.977,7.071-2.929c3.905-3.905,3.905-10.237,0-14.143
		l-60.003-60.003c-3.905-3.904-10.237-3.904-14.143,0c-3.905,3.905-3.905,10.237,0,14.143L296.05,258.873z"/>
	<path d="M291.515,203.404c1.953,1.952,4.512,2.929,7.071,2.929c2.559,0,5.119-0.977,7.071-2.929c3.905-3.905,3.906-10.237,0-14.143
		l-30.001-30.002c-3.905-3.903-10.237-3.904-14.142,0c-3.905,3.905-3.906,10.237,0,14.143L291.515,203.404z"/>
	<path d="M118.873,132.863c-4.796,2.739-6.464,8.847-3.726,13.643c2.738,4.797,8.846,6.464,13.643,3.727
		c10.875-6.211,24.66-4.356,33.523,4.508c8.863,8.863,10.717,22.648,4.508,33.522c-2.739,4.797-1.07,10.904,3.726,13.643
		c1.564,0.894,3.268,1.318,4.949,1.318c3.473,0,6.848-1.812,8.693-5.044c10.667-18.682,7.487-42.36-7.733-57.582
		C161.235,125.377,137.556,122.197,118.873,132.863z"/>
	<path d="M283.406,285.66c3.905-3.905,3.905-10.237,0-14.143l-60.003-60.003c-3.905-3.904-10.237-3.904-14.142,0
		c-3.905,3.905-3.905,10.237,0,14.143l60.003,60.003c1.953,1.952,4.512,2.929,7.071,2.929S281.453,287.612,283.406,285.66z"/>
	<path d="M392.13,312.939L270.01,435.058L67.071,232.119c-3.905-3.904-10.237-3.904-14.143,0c-3.905,3.905-3.905,10.237,0,14.143
		l210.011,210.011c1.953,1.952,4.512,2.929,7.071,2.929s5.119-0.977,7.071-2.929l129.19-129.19c3.905-3.905,3.905-10.237,0-14.143
		C402.367,309.035,396.035,309.035,392.13,312.939z"/>
	<path d="M392.13,262.939L270.01,385.058L67.071,182.119c-3.905-3.904-10.237-3.904-14.143,0c-3.905,3.905-3.905,10.237,0,14.143
		l210.011,210.011c1.953,1.952,4.512,2.929,7.071,2.929s5.119-0.977,7.071-2.929l129.19-129.19c3.905-3.905,3.905-10.237,0-14.143
		C402.367,259.035,396.035,259.035,392.13,262.939z"/>
	<path d="M262.939,356.272c1.953,1.952,4.512,2.929,7.071,2.929s5.119-0.977,7.071-2.929l129.19-129.19
		c3.905-3.905,3.905-10.237,0-14.143L196.261,2.928c-3.905-3.904-10.237-3.904-14.143,0l-129.19,129.19
		c-3.905,3.905-3.905,10.237,0,14.143L262.939,356.272z M189.19,24.142L385.059,220.01L270.01,335.058L74.142,139.19L189.19,24.142z
		"/>
	<path d="M224.456,133.527c5.466-5.467,8.477-12.734,8.477-20.465c0-7.731-3.011-14.999-8.477-20.465
		c-5.466-5.466-12.734-8.477-20.465-8.477s-14.998,3.011-20.464,8.477s-8.477,12.733-8.477,20.465c0,7.73,3.01,14.998,8.477,20.465
		c5.643,5.642,13.053,8.462,20.464,8.462S218.813,139.168,224.456,133.527L224.456,133.527z M210.314,119.384
		c-3.487,3.485-9.16,3.486-12.645,0c-1.689-1.688-2.619-3.935-2.619-6.322c0-2.389,0.93-4.634,2.619-6.322
		c1.689-1.689,3.934-2.619,6.322-2.619s4.633,0.93,6.323,2.619c1.688,1.688,2.619,3.934,2.619,6.322
		C212.932,115.45,212.002,117.695,210.314,119.384z"/>
</g>
<g>
</g>
<g>
</g>
<g>
</g>
<g>
</g>
<g>
</g>
<g>
</g>
<g>
</g>
<g>
</g>
<g>
</g>
<g>
</g>
<g>
</g>
<g>
</g>
<g>
</g>
<g>
</g>
<g>
</g>
</svg>
