<?xml version="1.0" encoding="UTF-8" standalone="no"?>
<!-- Created with Inkscape (http://www.inkscape.org/) -->

<svg
   xmlns:dc="http://purl.org/dc/elements/1.1/"
   xmlns:cc="http://creativecommons.org/ns#"
   xmlns:rdf="http://www.w3.org/1999/02/22-rdf-syntax-ns#"
   xmlns:svg="http://www.w3.org/2000/svg"
   xmlns="http://www.w3.org/2000/svg"
   xmlns:xlink="http://www.w3.org/1999/xlink"
   xmlns:sodipodi="http://sodipodi.sourceforge.net/DTD/sodipodi-0.dtd"
   xmlns:inkscape="http://www.inkscape.org/namespaces/inkscape"
   version="1.1"
   id="svg2"
   width="529.42999"
   height="300"
   viewBox="0 0 529.42999 300"
   sodipodi:docname="logo-firma correos-walink.svg"
   inkscape:version="0.92.1 r15371">
  <metadata
     id="metadata8">
    <rdf:RDF>
      <cc:Work
         rdf:about="">
        <dc:format>image/svg+xml</dc:format>
        <dc:type
           rdf:resource="http://purl.org/dc/dcmitype/StillImage" />
        <dc:title></dc:title>
      </cc:Work>
    </rdf:RDF>
  </metadata>
  <defs
     id="defs6">
    <linearGradient
       inkscape:collect="always"
       id="linearGradient4569">
      <stop
         style="stop-color:#075e54;stop-opacity:1"
         offset="0"
         id="stop4565" />
      <stop
         id="stop4573"
         offset="0.25"
         style="stop-color:#007b62;stop-opacity:1" />
      <stop
         style="stop-color:#00986b;stop-opacity:1"
         offset="0.5"
         id="stop4575" />
      <stop
         id="stop4577"
         offset="0.75"
         style="stop-color:#00b66c;stop-opacity:1" />
      <stop
         style="stop-color:#25d366;stop-opacity:1"
         offset="1"
         id="stop4567" />
    </linearGradient>
    <linearGradient
       inkscape:collect="always"
       xlink:href="#linearGradient4569"
       id="linearGradient4664"
       gradientUnits="userSpaceOnUse"
       x1="43.936497"
       y1="256.06351"
       x2="256.07751"
       y2="43.922482"
       gradientTransform="translate(-1448.1356,-149.38983)" />
    <linearGradient
       inkscape:collect="always"
       xlink:href="#linearGradient4569"
       id="linearGradient4800"
       gradientUnits="userSpaceOnUse"
       x1="43.936497"
       y1="256.06351"
       x2="256.07751"
       y2="43.922482"
       gradientTransform="translate(1985.0847,-150.06192)" />
  </defs>
  <sodipodi:namedview
     pagecolor="#ffffff"
     bordercolor="#666666"
     borderopacity="1"
     objecttolerance="10"
     gridtolerance="10"
     guidetolerance="10"
     inkscape:pageopacity="0"
     inkscape:pageshadow="2"
     inkscape:window-width="1366"
     inkscape:window-height="745"
     id="namedview4"
     showgrid="false"
     showguides="true"
     inkscape:guide-bbox="true"
     inkscape:zoom="0.86915209"
     inkscape:cx="198.37676"
     inkscape:cy="108.06821"
     inkscape:window-x="-8"
     inkscape:window-y="-8"
     inkscape:window-maximized="1"
     inkscape:current-layer="text4776">
    <inkscape:grid
       type="xygrid"
       id="grid4579"
       originx="-1985.0847"
       originy="-150.06192" />
  </sodipodi:namedview>
  <g
     id="g4807"
     transform="translate(-1985.0847,150.06192)">
    <g
       aria-label=".link"
       style="font-style:normal;font-variant:normal;font-weight:bold;font-stretch:normal;font-size:40px;line-height:1.25;font-family:Lato;-inkscape-font-specification:'Lato Bold';text-align:center;letter-spacing:0px;word-spacing:0px;text-anchor:middle;fill:#000000;fill-opacity:1;stroke:none"
       id="text4776">
      <path
         d="m 2305.0847,35.878073 q 0,-1.56 0.54,-2.94 0.6,-1.38 1.56,-2.4 1.02,-1.02 2.4,-1.62 1.38,-0.6 2.94,-0.6 1.56,0 2.94,0.6 1.38,0.6 2.4,1.62 1.02,1.02 1.56,2.4 0.6,1.38 0.6,2.94 0,1.62 -0.6,3 -0.54,1.32 -1.56,2.34 -1.02,1.02 -2.4,1.56 -1.38,0.6 -2.94,0.6 -1.56,0 -2.94,-0.6 -1.38,-0.54 -2.4,-1.56 -0.96,-1.02 -1.56,-2.34 -0.54,-1.38 -0.54,-3 z"
         style="font-size:120px;fill:#000000"
         id="path4495" />
      <path
         d="m 2345.9916,-45.901927 v 88.38 h -10.68 v -88.38 z"
         style="font-size:120px;fill:#000000"
         id="path4497" />
      <path
         d="m 2376.6947,-18.301927 v 60.78 h -10.68 v -60.78 z m 2.4,-19.08 q 0,1.56 -0.66,2.94 -0.6,1.32 -1.68,2.4 -1.02,1.02 -2.4,1.62 -1.38,0.6 -2.94,0.6 -1.56,0 -2.94,-0.6 -1.32,-0.6 -2.4,-1.62 -1.02,-1.08 -1.62,-2.4 -0.6,-1.38 -0.6,-2.94 0,-1.56 0.6,-2.94 0.6,-1.44 1.62,-2.46 1.08,-1.08 2.4,-1.68 1.38,-0.6 2.94,-0.6 1.56,0 2.94,0.6 1.38,0.6 2.4,1.68 1.08,1.02 1.68,2.46 0.66,1.38 0.66,2.94 z"
         style="font-size:120px;fill:#000000"
         id="path4499" />
      <path
         d="m 2395.5178,42.478073 v -60.78 h 6.36 q 2.28,0 2.88,2.22 l 0.84,6.6000001 q 3.96,-4.3800001 8.82,-7.0800001 4.92,-2.7 11.34,-2.7 4.98,0 8.76,1.68 3.84,1.62 6.36,4.68 2.58,3.0000001 3.9,7.2600001 1.32,4.26 1.32,9.42 V 42.478073 h -10.68 V 3.7780731 q 0,-6.9 -3.18,-10.68 -3.12,-3.8400001 -9.6,-3.8400001 -4.74,0 -8.88,2.2800001 -4.08,2.28 -7.56,6.18 V 42.478073 Z"
         style="font-size:120px;fill:#000000"
         id="path4501" />
      <path
         d="M 2473.4147,-45.901927 V 6.1180731 h 2.76 q 1.2,0 1.98,-0.3 0.78,-0.36 1.74,-1.38 l 19.2,-20.5800001 q 0.9,-0.96 1.8,-1.56 0.9,-0.6 2.4,-0.6 h 9.72 l -22.38,23.8200001 q -0.84,1.02 -1.68,1.8 -0.78,0.78 -1.8,1.38 1.08,0.72 1.92,1.6799999 0.9,0.9 1.68,2.1 l 23.76,30 h -9.6 q -1.32,0 -2.28,-0.48 -0.9,-0.54 -1.74,-1.62 l -19.98,-24.9 q -0.9,-1.26 -1.8,-1.62 -0.9,-0.42 -2.7,-0.42 h -3 v 29.04 h -10.74 v -88.38 z"
         style="font-size:120px;fill:#000000"
         id="path4503" />
    </g>
    <path
       inkscape:connector-curvature="0"
       style="font-style:normal;font-variant:normal;font-weight:bold;font-stretch:normal;font-size:120px;line-height:1.25;font-family:Lato;-inkscape-font-specification:'Lato Bold';text-align:center;letter-spacing:0px;word-spacing:0px;text-anchor:middle;fill:url(#linearGradient4800);fill-opacity:1;stroke:none"
       d="m 2135.0847,-150.06192 a 150,150 0 0 0 -150,150 150,150 0 0 0 150,150 150,150 0 0 0 150,-150 150,150 0 0 0 -150,-150 z m 0,10 c 36.6514,0 73.0795,15.08745 98.9961,41.003906 25.9164,25.9165 41.0039,62.344654 41.0039,98.996094 0,36.65144 -15.0875,73.07959 -41.0039,98.99609 -25.9166,25.91646 -62.3447,41.00391 -98.9961,41.00391 -36.6514,0 -73.0797,-15.08745 -98.9961,-41.00391 -25.9166,-25.9165 -41.0039,-62.34465 -41.0039,-98.99609 0,-36.65144 15.0873,-73.079594 41.0039,-98.996094 25.9164,-25.916456 62.3447,-41.003906 98.9961,-41.003906 z m -98.5293,97.00977 26.8203,85.98046 h 10.4395 l 21.9004,-65.58007 c 0.2,-0.6 0.379,-1.26047 0.539,-1.98047 0.2,-0.76 0.4016,-1.53985 0.6016,-2.33985 0.36,1.64 0.7592,3.08032 1.1992,4.32032 l 21.7793,65.58007 h 10.4414 l 26.8184,-85.98046 h -9.0586 c -1,0 -1.8601,0.27984 -2.5801,0.83984 -0.68,0.56 -1.1203,1.19992 -1.3203,1.91992 l -17.8203,59.75977 c -0.32,1.04 -0.5793,2.16133 -0.7793,3.36132 -0.2,1.20001 -0.4202,2.4593 -0.6602,3.7793 -0.56,-2.68 -1.1999,-5.06062 -1.9199,-7.14062 l -20.0996,-59.75977 c -0.28,-0.8 -0.7614,-1.46047 -1.4414,-1.98047 -0.64,-0.52 -1.4795,-0.77929 -2.5195,-0.77929 h -3.3594 c -1,0 -1.8601,0.30039 -2.5801,0.90039 -0.68,0.56 -1.1409,1.17937 -1.3809,1.85937 l -20.2187,59.75977 c -0.36,1.04 -0.681,2.20047 -0.961,3.48047 -0.28,1.24 -0.5598,2.54039 -0.8398,3.90039 -0.24,-1.36 -0.4993,-2.66039 -0.7793,-3.90039 -0.24,-1.24 -0.5198,-2.40047 -0.8398,-3.48047 l -17.7618,-59.75977 c -0.24,-0.8 -0.6989,-1.46047 -1.3789,-1.98047 -0.68,-0.52 -1.54,-0.77929 -2.58,-0.77929 z m 150.8594,0 -34.3809,85.98046 h 9 c 1,0 1.8396,-0.27984 2.5196,-0.83984 0.68,-0.56 1.1614,-1.19992 1.4414,-1.91992 l 8.039,-20.75977 h 38.5801 l 8.041,20.75977 c 0.32,0.8 0.7995,1.46047 1.4395,1.98047 0.64,0.52 1.4795,0.77929 2.5195,0.77929 h 9 l -34.3809,-85.98046 z m 5.8789,10.98046 c 0.84,3.24 1.7001,5.93961 2.5801,8.09961 l 13.5,34.98047 h -32.0996 l 13.5,-34.91992 c 0.4,-1.04 0.7992,-2.23961 1.1992,-3.59961 0.44,-1.4 0.8803,-2.92055 1.3203,-4.56055 z"
       id="path4794" />
  </g>
  <g
     id="g4819"
     transform="translate(-985.0847,2250.0619)" />
</svg>
